# xmcd CD database file
# Copyright (C) 1993-1998 Ti Kan
#
# Track frame offsets:
#	182
#	14390
#	28790
#	42342
#	55657
#	69245
#	83077
#	98115
#	111480
#	122212
#	136677
#	151812
#	165790
#	178862
#	189860
#	203370
#
# Disc length: 2872 seconds
#
# Revision: 1
# Processed by: cddbd v1.4b41PL1 Copyright (c) Steve Scherf et al.
# Submitted via: CDValet v3.31 - Copyright (c) 1997 Greg Leichner
#
DISCID=c00b3610
DTITLE=Louis Jordan and His Tympany Five - G I Jive 1940 - 1947
DYEAR=1900
DGENRE=
TTITLE0=Pompton Turnpike
TTITLE1=T-Bone Blues
TTITLE2=I'm Alabama Bound
TTITLE3=Deacon Jones
TTITLE4=Mop! Mop!
TTITLE5=G I Jive
TTITLE6=You Can't Get That No More
TTITLE7=If It's Love You Want Baby, That's Me
TTITLE8=Friendship
TTITLE9=I Know What You're Puttin' Down
TTITLE10=Every Man To His Own Profession
TTITLE11=Have You Got The Gumption
TTITLE12=We Can't Agree
TTITLE13=Chicky-Mo Craney Crow
TTITLE14=Roamin' Blues
TTITLE15=You're Much Too Fat ( And That's That)
EXTD=
EXTT0=
EXTT1=
EXTT2=
EXTT3=
EXTT4=
EXTT5=
EXTT6=
EXTT7=
EXTT8=
EXTT9=
EXTT10=
EXTT11=
EXTT12=
EXTT13=
EXTT14=
EXTT15=
PLAYORDER=
